%TF.GenerationSoftware,KiCad,Pcbnew,8.0.6*%
%TF.CreationDate,2024-12-04T16:57:49-05:00*%
%TF.ProjectId,Laser,4c617365-722e-46b6-9963-61645f706362,rev?*%
%TF.SameCoordinates,Original*%
%TF.FileFunction,Copper,L2,Bot*%
%TF.FilePolarity,Positive*%
%FSLAX46Y46*%
G04 Gerber Fmt 4.6, Leading zero omitted, Abs format (unit mm)*
G04 Created by KiCad (PCBNEW 8.0.6) date 2024-12-04 16:57:49*
%MOMM*%
%LPD*%
G01*
G04 APERTURE LIST*
%TA.AperFunction,SMDPad,CuDef*%
%ADD10R,1.000000X0.700000*%
%TD*%
%TA.AperFunction,ViaPad*%
%ADD11C,0.609600*%
%TD*%
%TA.AperFunction,Conductor*%
%ADD12C,0.508000*%
%TD*%
G04 APERTURE END LIST*
D10*
%TO.P,SW3,1,1*%
%TO.N,Net-(R3-Pad2)*%
X113490000Y-145650000D03*
X107490000Y-145650000D03*
%TO.P,SW3,2,2*%
%TO.N,Net-(BT1--)*%
X113490000Y-149350000D03*
X107490000Y-149350000D03*
%TD*%
%TO.P,SW1,1,1*%
%TO.N,Net-(R1-Pad2)*%
X146510000Y-145650000D03*
X140510000Y-145650000D03*
%TO.P,SW1,2,2*%
%TO.N,Net-(BT1--)*%
X146510000Y-149350000D03*
X140510000Y-149350000D03*
%TD*%
%TO.P,SW2,1,1*%
%TO.N,Net-(R2-Pad2)*%
X130000000Y-145650000D03*
X124000000Y-145650000D03*
%TO.P,SW2,2,2*%
%TO.N,Net-(BT1--)*%
X130000000Y-149350000D03*
X124000000Y-149350000D03*
%TD*%
D11*
%TO.N,Net-(BT1--)*%
X126600000Y-149400000D03*
%TO.N,Net-(R1-Pad2)*%
X119233071Y-125123650D03*
%TO.N,Net-(R2-Pad2)*%
X115941800Y-119157256D03*
%TO.N,Net-(R3-Pad2)*%
X110628741Y-145572873D03*
%TD*%
D12*
%TO.N,Net-(BT1--)*%
X107500000Y-149350000D02*
X146510000Y-149350000D01*
%TO.N,Net-(R1-Pad2)*%
X119233071Y-125123650D02*
X123181714Y-125123650D01*
X123181714Y-125123650D02*
X142904857Y-144846793D01*
X140510000Y-145650000D02*
X146510000Y-145650000D01*
X142904857Y-144849037D02*
X142931770Y-144875950D01*
X143725778Y-145669958D02*
X143752027Y-145669958D01*
X142931770Y-144875950D02*
X143725778Y-145669958D01*
X142904857Y-144846793D02*
X142904857Y-144849037D01*
%TO.N,Net-(R2-Pad2)*%
X130000000Y-145650000D02*
X124000000Y-145650000D01*
X115941800Y-119157256D02*
X115941800Y-134547533D01*
X115941800Y-134547533D02*
X127018168Y-145623901D01*
%TO.N,Net-(R3-Pad2)*%
X107567127Y-145572873D02*
X107490000Y-145650000D01*
X110628741Y-145572873D02*
X107567127Y-145572873D01*
X113412873Y-145572873D02*
X113490000Y-145650000D01*
X110628741Y-145572873D02*
X113412873Y-145572873D01*
%TD*%
%TA.AperFunction,Conductor*%
%TO.N,Net-(BT1--)*%
G36*
X146013589Y-149002568D02*
G01*
X146014500Y-149003144D01*
X146497271Y-149340409D01*
X146502090Y-149347956D01*
X146500161Y-149356701D01*
X146497270Y-149359591D01*
X146014499Y-149696855D01*
X146005755Y-149698784D01*
X146004704Y-149698547D01*
X145668605Y-149606360D01*
X145661533Y-149600867D01*
X145660000Y-149595077D01*
X145660000Y-149104922D01*
X145663427Y-149096649D01*
X145668602Y-149093640D01*
X146004705Y-149001452D01*
X146013589Y-149002568D01*
G37*
%TD.AperFunction*%
%TD*%
%TA.AperFunction,Conductor*%
%TO.N,Net-(BT1--)*%
G36*
X107995287Y-149001450D02*
G01*
X108331396Y-149093640D01*
X108338467Y-149099132D01*
X108340000Y-149104922D01*
X108340000Y-149595077D01*
X108336573Y-149603350D01*
X108331395Y-149606360D01*
X107995295Y-149698547D01*
X107986410Y-149697431D01*
X107985500Y-149696855D01*
X107502729Y-149359591D01*
X107497909Y-149352044D01*
X107499838Y-149343300D01*
X107502726Y-149340410D01*
X107985499Y-149003143D01*
X107994244Y-149001215D01*
X107995287Y-149001450D01*
G37*
%TD.AperFunction*%
%TD*%
%TA.AperFunction,Conductor*%
%TO.N,Net-(BT1--)*%
G36*
X126584751Y-149100614D02*
G01*
X126589804Y-149108007D01*
X126590054Y-149110411D01*
X126590054Y-149315439D01*
X126586627Y-149323712D01*
X126578354Y-149327139D01*
X126570081Y-149323712D01*
X126567558Y-149319949D01*
X126488811Y-149131455D01*
X126488784Y-149122500D01*
X126495097Y-149116149D01*
X126497203Y-149115495D01*
X126521417Y-149110411D01*
X126575950Y-149098961D01*
X126584751Y-149100614D01*
G37*
%TD.AperFunction*%
%TD*%
%TA.AperFunction,Conductor*%
%TO.N,Net-(R1-Pad2)*%
G36*
X119245688Y-124819901D02*
G01*
X119831943Y-124868756D01*
X119839903Y-124872858D01*
X119842671Y-124880416D01*
X119842671Y-125366884D01*
X119839244Y-125375157D01*
X119831943Y-125378544D01*
X119245701Y-125427397D01*
X119237171Y-125424669D01*
X119233069Y-125416709D01*
X119233029Y-125415775D01*
X119232071Y-125123726D01*
X119232071Y-125123650D01*
X119232869Y-124880416D01*
X119233029Y-124831522D01*
X119236483Y-124823262D01*
X119244767Y-124819862D01*
X119245688Y-124819901D01*
G37*
%TD.AperFunction*%
%TD*%
%TA.AperFunction,Conductor*%
%TO.N,Net-(R1-Pad2)*%
G36*
X141015287Y-145301450D02*
G01*
X141351396Y-145393640D01*
X141358467Y-145399132D01*
X141360000Y-145404922D01*
X141360000Y-145895077D01*
X141356573Y-145903350D01*
X141351395Y-145906360D01*
X141015295Y-145998547D01*
X141006410Y-145997431D01*
X141005500Y-145996855D01*
X140522729Y-145659591D01*
X140517909Y-145652044D01*
X140519838Y-145643300D01*
X140522726Y-145640410D01*
X141005499Y-145303143D01*
X141014244Y-145301215D01*
X141015287Y-145301450D01*
G37*
%TD.AperFunction*%
%TD*%
%TA.AperFunction,Conductor*%
%TO.N,Net-(R1-Pad2)*%
G36*
X146013589Y-145302568D02*
G01*
X146014500Y-145303144D01*
X146497271Y-145640409D01*
X146502090Y-145647956D01*
X146500161Y-145656701D01*
X146497270Y-145659591D01*
X146014499Y-145996855D01*
X146005755Y-145998784D01*
X146004704Y-145998547D01*
X145668605Y-145906360D01*
X145661533Y-145900867D01*
X145660000Y-145895077D01*
X145660000Y-145404922D01*
X145663427Y-145396649D01*
X145668602Y-145393640D01*
X146004705Y-145301452D01*
X146013589Y-145302568D01*
G37*
%TD.AperFunction*%
%TD*%
%TA.AperFunction,Conductor*%
%TO.N,Net-(R2-Pad2)*%
G36*
X129503589Y-145302568D02*
G01*
X129504500Y-145303144D01*
X129987271Y-145640409D01*
X129992090Y-145647956D01*
X129990161Y-145656701D01*
X129987270Y-145659591D01*
X129504499Y-145996855D01*
X129495755Y-145998784D01*
X129494704Y-145998547D01*
X129158605Y-145906360D01*
X129151533Y-145900867D01*
X129150000Y-145895077D01*
X129150000Y-145404922D01*
X129153427Y-145396649D01*
X129158602Y-145393640D01*
X129494705Y-145301452D01*
X129503589Y-145302568D01*
G37*
%TD.AperFunction*%
%TD*%
%TA.AperFunction,Conductor*%
%TO.N,Net-(R2-Pad2)*%
G36*
X124505287Y-145301450D02*
G01*
X124841396Y-145393640D01*
X124848467Y-145399132D01*
X124850000Y-145404922D01*
X124850000Y-145895077D01*
X124846573Y-145903350D01*
X124841395Y-145906360D01*
X124505295Y-145998547D01*
X124496410Y-145997431D01*
X124495500Y-145996855D01*
X124012729Y-145659591D01*
X124007909Y-145652044D01*
X124009838Y-145643300D01*
X124012726Y-145640410D01*
X124495499Y-145303143D01*
X124504244Y-145301215D01*
X124505287Y-145301450D01*
G37*
%TD.AperFunction*%
%TD*%
%TA.AperFunction,Conductor*%
%TO.N,Net-(R2-Pad2)*%
G36*
X116233926Y-119157214D02*
G01*
X116242187Y-119160668D01*
X116245587Y-119168952D01*
X116245547Y-119169886D01*
X116196694Y-119756128D01*
X116192592Y-119764088D01*
X116185034Y-119766856D01*
X115698566Y-119766856D01*
X115690293Y-119763429D01*
X115686906Y-119756128D01*
X115638052Y-119169886D01*
X115640780Y-119161356D01*
X115648740Y-119157254D01*
X115649663Y-119157214D01*
X115941800Y-119156256D01*
X116233926Y-119157214D01*
G37*
%TD.AperFunction*%
%TD*%
%TA.AperFunction,Conductor*%
%TO.N,Net-(R3-Pad2)*%
G36*
X108328930Y-145318276D02*
G01*
X108337007Y-145322143D01*
X108340000Y-145329959D01*
X108340000Y-145818718D01*
X108336573Y-145826991D01*
X108332350Y-145829695D01*
X107995314Y-145954066D01*
X107986367Y-145953715D01*
X107985165Y-145953074D01*
X107504271Y-145659328D01*
X107498997Y-145652091D01*
X107500385Y-145643244D01*
X107503669Y-145639752D01*
X107986695Y-145302308D01*
X107994024Y-145300217D01*
X108328930Y-145318276D01*
G37*
%TD.AperFunction*%
%TD*%
%TA.AperFunction,Conductor*%
%TO.N,Net-(R3-Pad2)*%
G36*
X110624640Y-145271853D02*
G01*
X110628742Y-145279813D01*
X110628782Y-145280747D01*
X110629741Y-145572873D01*
X110629741Y-145572949D01*
X110628782Y-145864998D01*
X110625328Y-145873260D01*
X110617044Y-145876660D01*
X110616110Y-145876620D01*
X110029869Y-145827767D01*
X110021909Y-145823665D01*
X110019141Y-145816107D01*
X110019141Y-145329639D01*
X110022568Y-145321366D01*
X110029869Y-145317979D01*
X110616111Y-145269125D01*
X110624640Y-145271853D01*
G37*
%TD.AperFunction*%
%TD*%
%TA.AperFunction,Conductor*%
%TO.N,Net-(R3-Pad2)*%
G36*
X112993305Y-145302309D02*
G01*
X113476330Y-145639752D01*
X113481149Y-145647299D01*
X113479220Y-145656044D01*
X113475728Y-145659328D01*
X112994834Y-145953074D01*
X112985987Y-145954462D01*
X112984685Y-145954065D01*
X112647650Y-145829694D01*
X112641074Y-145823615D01*
X112640000Y-145818718D01*
X112640000Y-145329959D01*
X112643427Y-145321686D01*
X112651069Y-145318276D01*
X112985974Y-145300217D01*
X112993305Y-145302309D01*
G37*
%TD.AperFunction*%
%TD*%
%TA.AperFunction,Conductor*%
%TO.N,Net-(R3-Pad2)*%
G36*
X110641358Y-145269124D02*
G01*
X111227613Y-145317979D01*
X111235573Y-145322081D01*
X111238341Y-145329639D01*
X111238341Y-145816107D01*
X111234914Y-145824380D01*
X111227613Y-145827767D01*
X110641371Y-145876620D01*
X110632841Y-145873892D01*
X110628739Y-145865932D01*
X110628699Y-145864998D01*
X110627741Y-145572949D01*
X110627741Y-145572873D01*
X110628539Y-145329639D01*
X110628699Y-145280745D01*
X110632153Y-145272485D01*
X110640437Y-145269085D01*
X110641358Y-145269124D01*
G37*
%TD.AperFunction*%
%TD*%
M02*
