%TF.GenerationSoftware,KiCad,Pcbnew,8.0.6*%
%TF.CreationDate,2024-12-04T16:57:49-05:00*%
%TF.ProjectId,Laser,4c617365-722e-46b6-9963-61645f706362,rev?*%
%TF.SameCoordinates,Original*%
%TF.FileFunction,Copper,L1,Top*%
%TF.FilePolarity,Positive*%
%FSLAX46Y46*%
G04 Gerber Fmt 4.6, Leading zero omitted, Abs format (unit mm)*
G04 Created by KiCad (PCBNEW 8.0.6) date 2024-12-04 16:57:49*
%MOMM*%
%LPD*%
G01*
G04 APERTURE LIST*
G04 Aperture macros list*
%AMRoundRect*
0 Rectangle with rounded corners*
0 $1 Rounding radius*
0 $2 $3 $4 $5 $6 $7 $8 $9 X,Y pos of 4 corners*
0 Add a 4 corners polygon primitive as box body*
4,1,4,$2,$3,$4,$5,$6,$7,$8,$9,$2,$3,0*
0 Add four circle primitives for the rounded corners*
1,1,$1+$1,$2,$3*
1,1,$1+$1,$4,$5*
1,1,$1+$1,$6,$7*
1,1,$1+$1,$8,$9*
0 Add four rect primitives between the rounded corners*
20,1,$1+$1,$2,$3,$4,$5,0*
20,1,$1+$1,$4,$5,$6,$7,0*
20,1,$1+$1,$6,$7,$8,$9,0*
20,1,$1+$1,$8,$9,$2,$3,0*%
G04 Aperture macros list end*
%TA.AperFunction,SMDPad,CuDef*%
%ADD10RoundRect,0.250000X0.262500X0.450000X-0.262500X0.450000X-0.262500X-0.450000X0.262500X-0.450000X0*%
%TD*%
%TA.AperFunction,SMDPad,CuDef*%
%ADD11R,1.270000X0.812800*%
%TD*%
%TA.AperFunction,SMDPad,CuDef*%
%ADD12RoundRect,0.250000X-0.262500X-0.450000X0.262500X-0.450000X0.262500X0.450000X-0.262500X0.450000X0*%
%TD*%
%TA.AperFunction,SMDPad,CuDef*%
%ADD13R,2.540000X5.080000*%
%TD*%
%TA.AperFunction,SMDPad,CuDef*%
%ADD14C,17.780000*%
%TD*%
%TA.AperFunction,SMDPad,CuDef*%
%ADD15RoundRect,0.250000X-0.450000X0.262500X-0.450000X-0.262500X0.450000X-0.262500X0.450000X0.262500X0*%
%TD*%
%TA.AperFunction,ViaPad*%
%ADD16C,0.609600*%
%TD*%
%TA.AperFunction,Conductor*%
%ADD17C,0.508000*%
%TD*%
G04 APERTURE END LIST*
D10*
%TO.P,R2,1*%
%TO.N,Net-(D1-GK)*%
X120004493Y-117501508D03*
%TO.P,R2,2*%
%TO.N,Net-(R2-Pad2)*%
X118179493Y-117501508D03*
%TD*%
D11*
%TO.P,D1,1,BK*%
%TO.N,Net-(D1-BK)*%
X127540000Y-117238000D03*
%TO.P,D1,2,GK*%
%TO.N,Net-(D1-GK)*%
X122460000Y-117238000D03*
%TO.P,D1,3,RK*%
%TO.N,Net-(D1-RK)*%
X122460000Y-118762000D03*
%TO.P,D1,4,A*%
%TO.N,Net-(BT1-+)*%
X127540000Y-118762000D03*
%TD*%
D12*
%TO.P,R3,1*%
%TO.N,Net-(D1-BK)*%
X130255775Y-117275783D03*
%TO.P,R3,2*%
%TO.N,Net-(R3-Pad2)*%
X132080775Y-117275783D03*
%TD*%
D13*
%TO.P,BT1,1,+*%
%TO.N,Net-(BT1-+)*%
X115140000Y-137500000D03*
X138000000Y-137500000D03*
D14*
%TO.P,BT1,2,-*%
%TO.N,Net-(BT1--)*%
X126570000Y-137500000D03*
%TD*%
D15*
%TO.P,R1,1*%
%TO.N,Net-(D1-RK)*%
X119233071Y-121526740D03*
%TO.P,R1,2*%
%TO.N,Net-(R1-Pad2)*%
X119233071Y-123351740D03*
%TD*%
D16*
%TO.N,Net-(BT1--)*%
X126600000Y-149400000D03*
%TO.N,Net-(R1-Pad2)*%
X119233071Y-125123650D03*
%TO.N,Net-(R2-Pad2)*%
X115941800Y-119157256D03*
%TO.N,Net-(R3-Pad2)*%
X110628741Y-145572873D03*
%TD*%
D17*
%TO.N,Net-(BT1-+)*%
X115140000Y-137500000D02*
X115140000Y-134976703D01*
X138000000Y-137500000D02*
X138000000Y-129010100D01*
X138000000Y-129010100D02*
X129553301Y-120563402D01*
X129553301Y-120563402D02*
X127751900Y-118762000D01*
X115140000Y-134976703D02*
X129553301Y-120563402D01*
%TO.N,Net-(BT1--)*%
X126570000Y-149334206D02*
X126563744Y-149340462D01*
X126570000Y-137500000D02*
X126570000Y-149334206D01*
%TO.N,Net-(D1-RK)*%
X119233071Y-121526740D02*
X119933071Y-121526740D01*
X119933071Y-121526740D02*
X122248100Y-119211711D01*
X122248100Y-119211711D02*
X122248100Y-118762000D01*
%TO.N,Net-(D1-BK)*%
X127789683Y-117275783D02*
X127751900Y-117238000D01*
X130255775Y-117275783D02*
X127789683Y-117275783D01*
%TO.N,Net-(D1-GK)*%
X120004493Y-117501508D02*
X121984592Y-117501508D01*
X121984592Y-117501508D02*
X122248100Y-117238000D01*
%TO.N,Net-(R1-Pad2)*%
X119233071Y-123351740D02*
X119233071Y-125123650D01*
%TO.N,Net-(R2-Pad2)*%
X118179493Y-117501508D02*
X117597548Y-117501508D01*
X117597548Y-117501508D02*
X115941800Y-119157256D01*
%TO.N,Net-(R3-Pad2)*%
X128935788Y-114130796D02*
X118067921Y-114130796D01*
X110623887Y-121574830D02*
X110623887Y-145446050D01*
X132080775Y-117275783D02*
X128935788Y-114130796D01*
X118067921Y-114130796D02*
X110623887Y-121574830D01*
%TD*%
%TA.AperFunction,Conductor*%
%TO.N,Net-(BT1-+)*%
G36*
X138256404Y-133963427D02*
G01*
X138257509Y-133964704D01*
X138996105Y-134954779D01*
X138998305Y-134963459D01*
X138997614Y-134966060D01*
X138010887Y-137473336D01*
X138004669Y-137479779D01*
X137995715Y-137479938D01*
X137989272Y-137473720D01*
X137989113Y-137473336D01*
X137002385Y-134966060D01*
X137002544Y-134957106D01*
X137003890Y-134954784D01*
X137742491Y-133964704D01*
X137750185Y-133960122D01*
X137751869Y-133960000D01*
X138248131Y-133960000D01*
X138256404Y-133963427D01*
G37*
%TD.AperFunction*%
%TD*%
%TA.AperFunction,Conductor*%
%TO.N,Net-(BT1-+)*%
G36*
X128177647Y-118739723D02*
G01*
X128178688Y-118740819D01*
X128618425Y-119267954D01*
X128621093Y-119276501D01*
X128617714Y-119283721D01*
X128272228Y-119629206D01*
X128263955Y-119632633D01*
X128258390Y-119631225D01*
X127411083Y-119173084D01*
X127405436Y-119166135D01*
X127405557Y-119159066D01*
X127536722Y-118768938D01*
X127542607Y-118762190D01*
X127547352Y-118760977D01*
X128169246Y-118736623D01*
X128177647Y-118739723D01*
G37*
%TD.AperFunction*%
%TD*%
%TA.AperFunction,Conductor*%
%TO.N,Net-(BT1-+)*%
G36*
X115691985Y-134081070D02*
G01*
X116042673Y-134431758D01*
X116044008Y-134433354D01*
X116406038Y-134954299D01*
X116407945Y-134963048D01*
X116406894Y-134966210D01*
X115155032Y-137469237D01*
X115148267Y-137475103D01*
X115139334Y-137474467D01*
X115133468Y-137467702D01*
X115133053Y-137466078D01*
X114682656Y-134966479D01*
X114684562Y-134957729D01*
X114686418Y-134955641D01*
X115675961Y-134080577D01*
X115684429Y-134077665D01*
X115691985Y-134081070D01*
G37*
%TD.AperFunction*%
%TD*%
%TA.AperFunction,Conductor*%
%TO.N,Net-(BT1--)*%
G36*
X126579152Y-137595632D02*
G01*
X126581626Y-137601604D01*
X127569501Y-146320056D01*
X127567460Y-146328083D01*
X126827494Y-147385010D01*
X126819941Y-147389822D01*
X126817909Y-147390000D01*
X126322091Y-147390000D01*
X126313818Y-147386573D01*
X126312506Y-147385010D01*
X125572539Y-146328083D01*
X125570498Y-146320057D01*
X126558374Y-137601603D01*
X126562711Y-137593769D01*
X126571317Y-137591295D01*
X126579152Y-137595632D01*
G37*
%TD.AperFunction*%
%TD*%
%TA.AperFunction,Conductor*%
%TO.N,Net-(BT1--)*%
G36*
X126822034Y-148799794D02*
G01*
X126825358Y-148806515D01*
X126903031Y-149386791D01*
X126900732Y-149395445D01*
X126892986Y-149399940D01*
X126891472Y-149400043D01*
X126600038Y-149400999D01*
X126599962Y-149400999D01*
X126307270Y-149400039D01*
X126299008Y-149396585D01*
X126295608Y-149388301D01*
X126295614Y-149387981D01*
X126315611Y-148807664D01*
X126319321Y-148799514D01*
X126327304Y-148796367D01*
X126813761Y-148796367D01*
X126822034Y-148799794D01*
G37*
%TD.AperFunction*%
%TD*%
%TA.AperFunction,Conductor*%
%TO.N,Net-(D1-RK)*%
G36*
X120119178Y-120988070D02*
G01*
X120119434Y-120988319D01*
X120466287Y-121335172D01*
X120469714Y-121343445D01*
X120466287Y-121351718D01*
X120465780Y-121352196D01*
X119930053Y-121827654D01*
X119921591Y-121830582D01*
X119917566Y-121829608D01*
X119238178Y-121530010D01*
X119231991Y-121523537D01*
X119231349Y-121521174D01*
X119204008Y-121352196D01*
X119151454Y-121027394D01*
X119153516Y-121018683D01*
X119161135Y-121013978D01*
X119162639Y-121013833D01*
X120110804Y-120984897D01*
X120119178Y-120988070D01*
G37*
%TD.AperFunction*%
%TD*%
%TA.AperFunction,Conductor*%
%TO.N,Net-(D1-RK)*%
G36*
X122460184Y-118765107D02*
G01*
X122465433Y-118770137D01*
X122674062Y-119160520D01*
X122674939Y-119169432D01*
X122671781Y-119174537D01*
X122179229Y-119640242D01*
X122170863Y-119643435D01*
X122162918Y-119640013D01*
X121815392Y-119292487D01*
X121811965Y-119284214D01*
X121811975Y-119283732D01*
X121824656Y-118992100D01*
X121828438Y-118983986D01*
X121832470Y-118981571D01*
X122451243Y-118764611D01*
X122460184Y-118765107D01*
G37*
%TD.AperFunction*%
%TD*%
%TA.AperFunction,Conductor*%
%TO.N,Net-(D1-BK)*%
G36*
X128180447Y-116856628D02*
G01*
X128574156Y-117018799D01*
X128580501Y-117025118D01*
X128581400Y-117029617D01*
X128581400Y-117520926D01*
X128577973Y-117529199D01*
X128572876Y-117532187D01*
X128180052Y-117642975D01*
X128171159Y-117641922D01*
X128170576Y-117641573D01*
X127554877Y-117248145D01*
X127549751Y-117240803D01*
X127551318Y-117231986D01*
X127555130Y-117228270D01*
X128169953Y-116857428D01*
X128178806Y-116856091D01*
X128180447Y-116856628D01*
G37*
%TD.AperFunction*%
%TD*%
%TA.AperFunction,Conductor*%
%TO.N,Net-(D1-BK)*%
G36*
X129761634Y-116769346D02*
G01*
X130248778Y-117267604D01*
X130252111Y-117275915D01*
X130248778Y-117283962D01*
X129761634Y-117782219D01*
X129753400Y-117785739D01*
X129748099Y-117784536D01*
X129237306Y-117532999D01*
X129231398Y-117526270D01*
X129230775Y-117522503D01*
X129230775Y-117029062D01*
X129234202Y-117020789D01*
X129237302Y-117018568D01*
X129748100Y-116767028D01*
X129757035Y-116766448D01*
X129761634Y-116769346D01*
G37*
%TD.AperFunction*%
%TD*%
%TA.AperFunction,Conductor*%
%TO.N,Net-(D1-GK)*%
G36*
X120512167Y-116992753D02*
G01*
X121022963Y-117244292D01*
X121028870Y-117251020D01*
X121029493Y-117254787D01*
X121029493Y-117748228D01*
X121026066Y-117756501D01*
X121022962Y-117758724D01*
X120512168Y-118010261D01*
X120503232Y-118010842D01*
X120498633Y-118007944D01*
X120221488Y-117724477D01*
X120011488Y-117509686D01*
X120008156Y-117501376D01*
X120011488Y-117493329D01*
X120498633Y-116995070D01*
X120506867Y-116991551D01*
X120512167Y-116992753D01*
G37*
%TD.AperFunction*%
%TD*%
%TA.AperFunction,Conductor*%
%TO.N,Net-(D1-GK)*%
G36*
X121830701Y-116981906D02*
G01*
X122454641Y-117235416D01*
X122461016Y-117241705D01*
X122461847Y-117244810D01*
X122510093Y-117632525D01*
X122507714Y-117641158D01*
X122499928Y-117645580D01*
X122499666Y-117645610D01*
X121431483Y-117754198D01*
X121422906Y-117751625D01*
X121418660Y-117743741D01*
X121418600Y-117742558D01*
X121418600Y-117253808D01*
X121422027Y-117245535D01*
X121423857Y-117244041D01*
X121819861Y-116982977D01*
X121828653Y-116981285D01*
X121830701Y-116981906D01*
G37*
%TD.AperFunction*%
%TD*%
%TA.AperFunction,Conductor*%
%TO.N,Net-(R1-Pad2)*%
G36*
X119241249Y-123358735D02*
G01*
X119456040Y-123568735D01*
X119739507Y-123845880D01*
X119743027Y-123854114D01*
X119741824Y-123859415D01*
X119490287Y-124370209D01*
X119483558Y-124376117D01*
X119479791Y-124376740D01*
X118986351Y-124376740D01*
X118978078Y-124373313D01*
X118975855Y-124370209D01*
X118724317Y-123859415D01*
X118723736Y-123850479D01*
X118726634Y-123845880D01*
X119224892Y-123358735D01*
X119233203Y-123355403D01*
X119241249Y-123358735D01*
G37*
%TD.AperFunction*%
%TD*%
%TA.AperFunction,Conductor*%
%TO.N,Net-(R1-Pad2)*%
G36*
X119484578Y-124517477D02*
G01*
X119487965Y-124524778D01*
X119536818Y-125111019D01*
X119534090Y-125119549D01*
X119526130Y-125123651D01*
X119525196Y-125123691D01*
X119233109Y-125124649D01*
X119233033Y-125124649D01*
X118940945Y-125123691D01*
X118932683Y-125120237D01*
X118929283Y-125111953D01*
X118929322Y-125111033D01*
X118978177Y-124524778D01*
X118982279Y-124516818D01*
X118989837Y-124514050D01*
X119476305Y-124514050D01*
X119484578Y-124517477D01*
G37*
%TD.AperFunction*%
%TD*%
%TA.AperFunction,Conductor*%
%TO.N,Net-(R2-Pad2)*%
G36*
X117674561Y-117142955D02*
G01*
X118171661Y-117494758D01*
X118176434Y-117502334D01*
X118175146Y-117509960D01*
X117814234Y-118164052D01*
X117807237Y-118169640D01*
X117798584Y-118168776D01*
X117636169Y-118084163D01*
X117465460Y-117995230D01*
X117462593Y-117993127D01*
X117113449Y-117643983D01*
X117110022Y-117635710D01*
X117113449Y-117627437D01*
X117113946Y-117626969D01*
X117660049Y-117143742D01*
X117668515Y-117140827D01*
X117674561Y-117142955D01*
G37*
%TD.AperFunction*%
%TD*%
%TA.AperFunction,Conductor*%
%TO.N,Net-(R2-Pad2)*%
G36*
X116200859Y-118554211D02*
G01*
X116544844Y-118898196D01*
X116548271Y-118906469D01*
X116545503Y-118914027D01*
X116165512Y-119363107D01*
X116157552Y-119367209D01*
X116149022Y-119364481D01*
X116148334Y-119363849D01*
X115941093Y-119157963D01*
X115941039Y-119157909D01*
X115735206Y-118950721D01*
X115731806Y-118942437D01*
X115735260Y-118934175D01*
X115735929Y-118933559D01*
X116185030Y-118553551D01*
X116193558Y-118550824D01*
X116200859Y-118554211D01*
G37*
%TD.AperFunction*%
%TD*%
%TA.AperFunction,Conductor*%
%TO.N,Net-(R3-Pad2)*%
G36*
X110875481Y-144967666D02*
G01*
X110878859Y-144974874D01*
X110932377Y-145560149D01*
X110929718Y-145568699D01*
X110921791Y-145572865D01*
X110920764Y-145572914D01*
X110628779Y-145573872D01*
X110628703Y-145573872D01*
X110336516Y-145572914D01*
X110328254Y-145569460D01*
X110324854Y-145561176D01*
X110324886Y-145560350D01*
X110369070Y-144975057D01*
X110373110Y-144967067D01*
X110380737Y-144964239D01*
X110867208Y-144964239D01*
X110875481Y-144967666D01*
G37*
%TD.AperFunction*%
%TD*%
%TA.AperFunction,Conductor*%
%TO.N,Net-(R3-Pad2)*%
G36*
X131403347Y-116235287D02*
G01*
X132098709Y-116572461D01*
X132104658Y-116579154D01*
X132105297Y-116583391D01*
X132081741Y-117268950D01*
X132078032Y-117277100D01*
X132074507Y-117279365D01*
X131577637Y-117484207D01*
X131568683Y-117484192D01*
X131563112Y-117479354D01*
X131041277Y-116598678D01*
X131040008Y-116589814D01*
X131043068Y-116584443D01*
X131389970Y-116237541D01*
X131398242Y-116234115D01*
X131403347Y-116235287D01*
G37*
%TD.AperFunction*%
%TD*%
M02*
