%TF.GenerationSoftware,KiCad,Pcbnew,8.0.6*%
%TF.CreationDate,2024-12-04T16:57:49-05:00*%
%TF.ProjectId,Laser,4c617365-722e-46b6-9963-61645f706362,rev?*%
%TF.SameCoordinates,Original*%
%TF.FileFunction,Legend,Top*%
%TF.FilePolarity,Positive*%
%FSLAX46Y46*%
G04 Gerber Fmt 4.6, Leading zero omitted, Abs format (unit mm)*
G04 Created by KiCad (PCBNEW 8.0.6) date 2024-12-04 16:57:49*
%MOMM*%
%LPD*%
G01*
G04 APERTURE LIST*
G04 Aperture macros list*
%AMRoundRect*
0 Rectangle with rounded corners*
0 $1 Rounding radius*
0 $2 $3 $4 $5 $6 $7 $8 $9 X,Y pos of 4 corners*
0 Add a 4 corners polygon primitive as box body*
4,1,4,$2,$3,$4,$5,$6,$7,$8,$9,$2,$3,0*
0 Add four circle primitives for the rounded corners*
1,1,$1+$1,$2,$3*
1,1,$1+$1,$4,$5*
1,1,$1+$1,$6,$7*
1,1,$1+$1,$8,$9*
0 Add four rect primitives between the rounded corners*
20,1,$1+$1,$2,$3,$4,$5,0*
20,1,$1+$1,$4,$5,$6,$7,0*
20,1,$1+$1,$6,$7,$8,$9,0*
20,1,$1+$1,$8,$9,$2,$3,0*%
G04 Aperture macros list end*
%ADD10C,0.150000*%
%ADD11C,0.100000*%
%ADD12C,0.120000*%
%ADD13C,0.254000*%
%ADD14RoundRect,0.250000X0.262500X0.450000X-0.262500X0.450000X-0.262500X-0.450000X0.262500X-0.450000X0*%
%ADD15C,0.025400*%
%ADD16R,1.270000X0.812800*%
%ADD17RoundRect,0.250000X-0.262500X-0.450000X0.262500X-0.450000X0.262500X0.450000X-0.262500X0.450000X0*%
%ADD18R,2.540000X5.080000*%
%ADD19C,17.780000*%
%ADD20RoundRect,0.250000X-0.450000X0.262500X-0.450000X-0.262500X0.450000X-0.262500X0.450000X0.262500X0*%
G04 APERTURE END LIST*
D10*
X118925326Y-119606327D02*
X118591993Y-119130136D01*
X118353898Y-119606327D02*
X118353898Y-118606327D01*
X118353898Y-118606327D02*
X118734850Y-118606327D01*
X118734850Y-118606327D02*
X118830088Y-118653946D01*
X118830088Y-118653946D02*
X118877707Y-118701565D01*
X118877707Y-118701565D02*
X118925326Y-118796803D01*
X118925326Y-118796803D02*
X118925326Y-118939660D01*
X118925326Y-118939660D02*
X118877707Y-119034898D01*
X118877707Y-119034898D02*
X118830088Y-119082517D01*
X118830088Y-119082517D02*
X118734850Y-119130136D01*
X118734850Y-119130136D02*
X118353898Y-119130136D01*
X119306279Y-118701565D02*
X119353898Y-118653946D01*
X119353898Y-118653946D02*
X119449136Y-118606327D01*
X119449136Y-118606327D02*
X119687231Y-118606327D01*
X119687231Y-118606327D02*
X119782469Y-118653946D01*
X119782469Y-118653946D02*
X119830088Y-118701565D01*
X119830088Y-118701565D02*
X119877707Y-118796803D01*
X119877707Y-118796803D02*
X119877707Y-118892041D01*
X119877707Y-118892041D02*
X119830088Y-119034898D01*
X119830088Y-119034898D02*
X119258660Y-119606327D01*
X119258660Y-119606327D02*
X119877707Y-119606327D01*
D11*
X120261905Y-115457419D02*
X120261905Y-114457419D01*
X120261905Y-114457419D02*
X120500000Y-114457419D01*
X120500000Y-114457419D02*
X120642857Y-114505038D01*
X120642857Y-114505038D02*
X120738095Y-114600276D01*
X120738095Y-114600276D02*
X120785714Y-114695514D01*
X120785714Y-114695514D02*
X120833333Y-114885990D01*
X120833333Y-114885990D02*
X120833333Y-115028847D01*
X120833333Y-115028847D02*
X120785714Y-115219323D01*
X120785714Y-115219323D02*
X120738095Y-115314561D01*
X120738095Y-115314561D02*
X120642857Y-115409800D01*
X120642857Y-115409800D02*
X120500000Y-115457419D01*
X120500000Y-115457419D02*
X120261905Y-115457419D01*
X121785714Y-115457419D02*
X121214286Y-115457419D01*
X121500000Y-115457419D02*
X121500000Y-114457419D01*
X121500000Y-114457419D02*
X121404762Y-114600276D01*
X121404762Y-114600276D02*
X121309524Y-114695514D01*
X121309524Y-114695514D02*
X121214286Y-114743133D01*
D10*
X131001608Y-116080602D02*
X130668275Y-115604411D01*
X130430180Y-116080602D02*
X130430180Y-115080602D01*
X130430180Y-115080602D02*
X130811132Y-115080602D01*
X130811132Y-115080602D02*
X130906370Y-115128221D01*
X130906370Y-115128221D02*
X130953989Y-115175840D01*
X130953989Y-115175840D02*
X131001608Y-115271078D01*
X131001608Y-115271078D02*
X131001608Y-115413935D01*
X131001608Y-115413935D02*
X130953989Y-115509173D01*
X130953989Y-115509173D02*
X130906370Y-115556792D01*
X130906370Y-115556792D02*
X130811132Y-115604411D01*
X130811132Y-115604411D02*
X130430180Y-115604411D01*
X131334942Y-115080602D02*
X131953989Y-115080602D01*
X131953989Y-115080602D02*
X131620656Y-115461554D01*
X131620656Y-115461554D02*
X131763513Y-115461554D01*
X131763513Y-115461554D02*
X131858751Y-115509173D01*
X131858751Y-115509173D02*
X131906370Y-115556792D01*
X131906370Y-115556792D02*
X131953989Y-115652030D01*
X131953989Y-115652030D02*
X131953989Y-115890125D01*
X131953989Y-115890125D02*
X131906370Y-115985363D01*
X131906370Y-115985363D02*
X131858751Y-116032983D01*
X131858751Y-116032983D02*
X131763513Y-116080602D01*
X131763513Y-116080602D02*
X131477799Y-116080602D01*
X131477799Y-116080602D02*
X131382561Y-116032983D01*
X131382561Y-116032983D02*
X131334942Y-115985363D01*
D11*
X117784285Y-129933609D02*
X117927142Y-129981228D01*
X117927142Y-129981228D02*
X117974761Y-130028847D01*
X117974761Y-130028847D02*
X118022380Y-130124085D01*
X118022380Y-130124085D02*
X118022380Y-130266942D01*
X118022380Y-130266942D02*
X117974761Y-130362180D01*
X117974761Y-130362180D02*
X117927142Y-130409800D01*
X117927142Y-130409800D02*
X117831904Y-130457419D01*
X117831904Y-130457419D02*
X117450952Y-130457419D01*
X117450952Y-130457419D02*
X117450952Y-129457419D01*
X117450952Y-129457419D02*
X117784285Y-129457419D01*
X117784285Y-129457419D02*
X117879523Y-129505038D01*
X117879523Y-129505038D02*
X117927142Y-129552657D01*
X117927142Y-129552657D02*
X117974761Y-129647895D01*
X117974761Y-129647895D02*
X117974761Y-129743133D01*
X117974761Y-129743133D02*
X117927142Y-129838371D01*
X117927142Y-129838371D02*
X117879523Y-129885990D01*
X117879523Y-129885990D02*
X117784285Y-129933609D01*
X117784285Y-129933609D02*
X117450952Y-129933609D01*
X118308095Y-129457419D02*
X118879523Y-129457419D01*
X118593809Y-130457419D02*
X118593809Y-129457419D01*
X119736666Y-130457419D02*
X119165238Y-130457419D01*
X119450952Y-130457419D02*
X119450952Y-129457419D01*
X119450952Y-129457419D02*
X119355714Y-129600276D01*
X119355714Y-129600276D02*
X119260476Y-129695514D01*
X119260476Y-129695514D02*
X119165238Y-129743133D01*
D10*
X120956850Y-123938036D02*
X120623517Y-123461845D01*
X120385422Y-123938036D02*
X120385422Y-122938036D01*
X120385422Y-122938036D02*
X120766374Y-122938036D01*
X120766374Y-122938036D02*
X120861612Y-122985655D01*
X120861612Y-122985655D02*
X120909231Y-123033274D01*
X120909231Y-123033274D02*
X120956850Y-123128512D01*
X120956850Y-123128512D02*
X120956850Y-123271369D01*
X120956850Y-123271369D02*
X120909231Y-123366607D01*
X120909231Y-123366607D02*
X120861612Y-123414226D01*
X120861612Y-123414226D02*
X120766374Y-123461845D01*
X120766374Y-123461845D02*
X120385422Y-123461845D01*
X121909231Y-123938036D02*
X121337803Y-123938036D01*
X121623517Y-123938036D02*
X121623517Y-122938036D01*
X121623517Y-122938036D02*
X121528279Y-123080893D01*
X121528279Y-123080893D02*
X121433041Y-123176131D01*
X121433041Y-123176131D02*
X121337803Y-123223750D01*
D12*
%TO.C,R2*%
X119319057Y-116766508D02*
X118864929Y-116766508D01*
X119319057Y-118236508D02*
X118864929Y-118236508D01*
D13*
%TO.C,D1*%
X128250000Y-116250000D02*
X128750000Y-116750000D01*
D12*
%TO.C,R3*%
X130941211Y-116540783D02*
X131395339Y-116540783D01*
X130941211Y-118010783D02*
X131395339Y-118010783D01*
D13*
%TO.C,BT1*%
X115070000Y-127500000D02*
X138070000Y-127500000D01*
X115070000Y-134500000D02*
X115070000Y-127500000D01*
X138070000Y-127500000D02*
X138070000Y-134500000D01*
D12*
%TO.C,R1*%
X118498071Y-122212176D02*
X118498071Y-122666304D01*
X119968071Y-122212176D02*
X119968071Y-122666304D01*
%TD*%
%LPC*%
D14*
%TO.C,R2*%
X120004493Y-117501508D03*
X118179493Y-117501508D03*
%TD*%
D15*
%TO.C,D1*%
X125000000Y-118000000D03*
D16*
X127540000Y-117238000D03*
X122460000Y-117238000D03*
X122460000Y-118762000D03*
X127540000Y-118762000D03*
%TD*%
D17*
%TO.C,R3*%
X130255775Y-117275783D03*
X132080775Y-117275783D03*
%TD*%
D18*
%TO.C,BT1*%
X115140000Y-137500000D03*
X138000000Y-137500000D03*
D19*
X126570000Y-137500000D03*
%TD*%
D20*
%TO.C,R1*%
X119233071Y-121526740D03*
X119233071Y-123351740D03*
%TD*%
%LPD*%
M02*
